<svg xmlns="http://www.w3.org/2000/svg" data-name="Layer 1" viewBox="0 0 50.46 50.46"><path d="M48.53 23.75A20.95 20.95 0 0 0 25.44 2.89a20.92 20.92 0 0 0-23 19.31 20.95 20.95 0 0 0 28.45 23.89 21 21 0 0 0 10.38-6.51 20.9 20.9 0 0 0 7.26-15.83ZM40.67 39a19.21 19.21 0 0 1-2 1.55 20.81 20.81 0 0 0 5.16-12.27A20.67 20.67 0 0 0 42.37 15a20 20 0 0 1-1.7 24Zm-15.23 7a20 20 0 0 1-10.83-3.2 20.82 20.82 0 0 0 8.71 1.92 21 21 0 0 0 2.12-.11 21.19 21.19 0 0 0 2.12.11 20.67 20.67 0 0 0 5.76-.83 20 20 0 0 1-2.68 1.39 19.84 19.84 0 0 1-5.2.72ZM3.27 22.33a20.18 20.18 0 0 1 8.56-12.4l-.1.11a20.83 20.83 0 0 0-5.34 24.54A20 20 0 0 1 3.2 23.75c0-.48.04-.95.07-1.42ZM22.9 6.59A20.14 20.14 0 0 1 43 26.71c0 .48 0 .95-.07 1.42a20.17 20.17 0 0 1-17.49 15.63 20.09 20.09 0 0 1-13.11-33.12A20 20 0 0 1 17.7 7.3a19.84 19.84 0 0 1 5.2-.71ZM35.92 42a20.26 20.26 0 0 1-6.36 1.74 21.06 21.06 0 0 0 12.13-9.93A20.1 20.1 0 0 1 35.92 42ZM5.32 25.87A20 20 0 0 1 8.51 15a20.79 20.79 0 0 0-1.92 8.71 21 21 0 0 0 14.73 20A20 20 0 0 1 10.21 39a20 20 0 0 1-4.89-13.13Zm38.05-3.67a21 21 0 0 0-19.2-16.39c.42 0 .84-.07 1.27-.07a20 20 0 0 1 13.11 4.9 20 20 0 0 1 4.82 11.56ZM25.44 4.9a20.86 20.86 0 0 0-8 1.59l-.31.08a19.9 19.9 0 0 1 8.3-2.83 19.83 19.83 0 0 1 8.71 3.08 20.79 20.79 0 0 0-8.7-1.92Zm-4.12-1.17a21.11 21.11 0 0 0-7.26 4 21.06 21.06 0 0 0-9.53 8.9 20.15 20.15 0 0 1 16.79-12.9ZM2.86 28.26a21 21 0 0 0 6.75 11.32 20.94 20.94 0 0 0 14.56 7.19c-.42 0-.84.06-1.27.06A20.13 20.13 0 0 1 2.86 28.26Zm43.55-2.39A20.89 20.89 0 0 0 39.15 10a20.92 20.92 0 0 0-9.59-6.31 20.09 20.09 0 0 1 14.93 30.89 20.82 20.82 0 0 0 1.92-8.71Z"/></svg>