<svg xmlns="http://www.w3.org/2000/svg" xml:space="preserve" viewBox="0 0 50.5 50.5"><path d="M5.62 38.14c.86-2.49 2.76-6.19 5.65-8.76-2.96 2.56-4.81 6.27-5.65 8.76zM22.8 29.4c.6-.2 1.2-.3 1.7-.6-.6.2-1.1.4-1.7.6zm5.11.78c1.32 1.36 2.39 2.92 3.29 4.42-.83-1.5-1.94-3.06-3.29-4.42zM32 36.2c.6 1.2.9 2.3 1.2 3.1-.2-.8-.6-1.9-1.2-3.1zm-6.4-13.8a8.89 8.89 0 0 0 2.15-3.54 9.611 9.611 0 0 1-2.15 3.54zm-2.14 1.62c-.55.31-1.15.57-1.77.77.61-.18 1.2-.44 1.77-.77zm-1.77.77c-.84.26-1.74.41-2.69.41.93 0 1.83-.13 2.69-.41zM12.24 9.94A8.9 8.9 0 0 0 10 14.72a9.272 9.272 0 0 1 2.24-4.78zM46.6 13.4c-.2-.1-.4-.2-.6-.2H30.5c.1.5.2 1.1.3 1.6h14.4l-.1 12.5H29c.6.5 1.1 1 1.6 1.6h13.8l-3.8 5.7h-6.2c.3.6.5 1.1.7 1.6H41c.3 0 .5-.1.7-.4l4.9-7.3v-.2c0-.1.1-.2.1-.3l.1-14c0-.2-.1-.4-.2-.6zm-11.2 3.2c-.5 0-.8.4-.8.8 0 .5.4.8.8.8.4.1.8-.3.8-.8s-.4-.8-.8-.8zm-1.6 19.6c-.2-.5-.5-1.1-.8-1.6-1-1.9-2.3-4-4.1-5.7-.6-.6-1.2-1.1-1.9-1.6l-.9-.6c-.2-.1-.5-.1-.7 0h-.1c-.5.3-1 .5-1.5.7-1.5.6-3.1.9-4.7.9-2.2 0-4.3-.6-6.2-1.7-.3-.1-.6-.1-.8 0-5.3 3.2-8.1 10-8.7 12.8-.1.3.1.7.4.8 4.6 2.8 9.9 4.4 15.3 4.6 5.4-.1 10.7-1.6 15.3-4.5.3-.2.4-.5.4-.8-.1-.8-.5-2-1-3.3zm-3.02 4.43c-3.58 1.75-7.5 2.67-11.48 2.67-4.9-.2-9.7-1.6-14-4.1.04-.17.09-.35.15-.54.05-.16.11-.34.17-.51 0 0-.01 0 0-.01.86-2.49 2.76-6.19 5.65-8.76.21-.18.43-.36.65-.53.25-.18.51-.37.78-.55.5.25 1.02.48 1.55.67 1.06.4 2.17.68 3.29.82.55.07 1.11.11 1.66.11 1.2 0 2.4-.2 3.6-.5.6-.2 1.2-.3 1.7-.6.4-.2.8-.3 1.2-.5.3.2.5.4.8.6.5.4.97.83 1.41 1.28 1.32 1.36 2.39 2.92 3.29 4.42.3.5.6 1.1.8 1.6.6 1.2.9 2.3 1.2 3.1-.79.49-1.6.93-2.42 1.33zM29.6 14.8c-.1-.5-.2-1.1-.3-1.6C28 8.7 23.9 5.3 19 5.3c-6 0-10.8 4.9-10.8 10.8S13 26.8 19 26.8c1.8 0 3.5-.4 4.9-1.2.6-.3 1.1-.6 1.6-1 2.5-2 4.2-5 4.2-8.5 0-.4 0-.9-.1-1.3zm-1.68 3.47c-.05.2-.11.4-.17.59a9.611 9.611 0 0 1-2.15 3.54c-.5.5-1 .9-1.6 1.3-.18.12-.36.23-.54.32-.55.31-1.15.57-1.77.77a9.069 9.069 0 0 1-4.54.22c-.27-.06-.54-.13-.81-.21-.29-.09-.59-.2-.87-.32-.12-.05-.23-.1-.35-.15l-.12-.06c-.12-.06-.25-.13-.37-.2-.9-.5-1.72-1.15-2.39-1.91A8.9 8.9 0 0 1 10 17.38c-.04-.3-.07-.6-.09-.91-.01-.12-.01-.25-.01-.37 0-.16 0-.31.01-.47.02-.31.05-.61.09-.91a9.272 9.272 0 0 1 2.24-4.78c.68-.76 1.49-1.41 2.39-1.91.12-.07.25-.14.37-.2l.12-.06c.12-.05.23-.1.35-.15.28-.12.57-.23.87-.32.27-.08.54-.15.81-.21.59-.12 1.21-.19 1.85-.19.5 0 .99.04 1.47.12.2.03.39.07.58.12 2.66.61 4.88 2.4 6.13 4.78.08.17.17.34.25.52.1.21.19.44.27.66.2.5.3 1 .4 1.6.1.4.1.9.1 1.3 0 .79-.1 1.55-.28 2.27z"/></svg>