<svg xmlns="http://www.w3.org/2000/svg" id="Layer_1" data-name="Layer 1" viewBox="0 0 50.46 50.46"><defs/><path d="M27.89 27a5.11 5.11 0 1 0-5.3 0l-5.51 15a1 1 0 0 0 .92 1.27h14.46a1 1 0 0 0 .91-1.27Zm3.17 14.27H19.4L21.35 36h7.76Zm-4.71-15.7a3.12 3.12 0 0 1-1.05.18 3.18 3.18 0 1 1 1.12-.21Zm-4.27 8.46 2.34-6.36a5.23 5.23 0 0 0 .81.07 4.83 4.83 0 0 0 .82-.07l2.34 6.36Z" class="cls-1"/><path d="M17.22 30.46A1 1 0 0 0 18.67 29a9.19 9.19 0 0 1 1.43-14 1 1 0 1 0-1.1-1.68 11.21 11.21 0 0 0-1.74 17.14ZM31.62 13.41a1 1 0 0 0-1.57 1 1 1 0 0 0 .42.65 9.19 9.19 0 0 1 1.42 13.88 1 1 0 1 0 1.47 1.39 11.21 11.21 0 0 0-1.74-16.93Z" class="cls-1"/><path d="M8.93 22.62A16.28 16.28 0 0 1 16.21 9a1 1 0 0 0-1.12-1.68 18.32 18.32 0 0 0-2.73 28.29 1 1 0 0 0 1.42-1.44 16.18 16.18 0 0 1-4.85-11.55ZM35.58 7.5a1 1 0 1 0-1.14 1.67 16.3 16.3 0 0 1 2.35 24.94 1 1 0 1 0 1.43 1.43 18.32 18.32 0 0 0-2.64-28Z" class="cls-1"/></svg>