<svg xmlns="http://www.w3.org/2000/svg" xml:space="preserve" viewBox="0 0 50.46 50.46"><path d="m47.314 21.618-3.783-5.309a.8.8 0 0 0-.651-.335H27.917l-2.082-2.414c-.029-.034-.071-.049-.105-.076v-2.027a6.583 6.583 0 0 1 4.831.111.5.5 0 0 0 .694-.461v-3.87a.5.5 0 0 0-.307-.461 7.58 7.58 0 0 0-5.911 0 .5.5 0 0 0-.307.461v6.246c-.034.027-.076.042-.105.076l-2.082 2.414H7.58a.8.8 0 0 0-.651.335l-3.784 5.309a.8.8 0 0 0 .651 1.265H6.63v18.271c0 .005.003.009.003.015H3.796a.5.5 0 0 0 0 1h42.867a.5.5 0 0 0 0-1h-2.836c0-.005.003-.009.003-.015V22.882h2.833a.799.799 0 0 0 .651-1.264zM25.73 9.585V8.459a6.57 6.57 0 0 1 4.524.002v1.128a7.549 7.549 0 0 0-4.524-.004zM7.992 17.573h13.171l-3.199 3.709H5.349l2.643-3.709zm19.759 23.594h-5.042v-7.809c0-1.588 1.131-2.88 2.521-2.88s2.521 1.292 2.521 2.88v7.809zm14.482 0H28.751v-7.809c0-2.14-1.579-3.88-3.521-3.88-1.941 0-3.521 1.74-3.521 3.88v7.809H8.227c0-.005.003-.009.003-.015v-18.27h10.1a.789.789 0 0 0 .322-.07c.029-.013.05-.036.077-.052a.806.806 0 0 0 .184-.138c.007-.007.016-.01.023-.017l6.294-7.298 6.294 7.298c.006.007.016.01.022.017a.815.815 0 0 0 .185.139c.027.016.048.039.076.051.099.044.207.07.322.07H42.23v18.271c0 .005.003.009.003.014zm.797-19.885H32.496l-3.199-3.709h13.171l2.643 3.709H43.03zm-28.365 6.535h-2.301a.5.5 0 0 0-.5.5v4.18a.5.5 0 0 0 .5.5h2.301a.5.5 0 0 0 .5-.5v-4.18a.5.5 0 0 0-.5-.5zm-.5 4.179h-1.301v-3.18h1.301v3.18zm5.11-4.179h-2.3a.5.5 0 0 0-.5.5v4.18a.5.5 0 0 0 .5.5h2.3a.5.5 0 0 0 .5-.5v-4.18c0-.277-.223-.5-.5-.5zm-.5 4.179h-1.3v-3.18h1.3v3.18zm-4.11 2.231h-2.301a.5.5 0 0 0-.5.5v4.18a.5.5 0 0 0 .5.5h2.301a.5.5 0 0 0 .5-.5v-4.18a.5.5 0 0 0-.5-.5zm-.5 4.179h-1.301v-3.18h1.301v3.18zm5.11-4.179h-2.3a.5.5 0 0 0-.5.5v4.18a.5.5 0 0 0 .5.5h2.3a.5.5 0 0 0 .5-.5v-4.18c0-.277-.223-.5-.5-.5zm-.5 4.179h-1.3v-3.18h1.3v3.18zm14.71-10.589h-2.301a.5.5 0 0 0-.5.5v4.18a.5.5 0 0 0 .5.5h2.301a.5.5 0 0 0 .5-.5v-4.18c0-.277-.223-.5-.5-.5zm-.5 4.179h-1.301v-3.18h1.301v3.18zm5.112-4.179h-2.301a.5.5 0 0 0-.5.5v4.18a.5.5 0 0 0 .5.5h2.301a.5.5 0 0 0 .5-.5v-4.18a.5.5 0 0 0-.5-.5zm-.5 4.179h-1.301v-3.18h1.301v3.18zm-4.112 2.231h-2.301a.5.5 0 0 0-.5.5v4.18a.5.5 0 0 0 .5.5h2.301a.5.5 0 0 0 .5-.5v-4.18c0-.277-.223-.5-.5-.5zm-.5 4.179h-1.301v-3.18h1.301v3.18zm5.112-4.179h-2.301a.5.5 0 0 0-.5.5v4.18a.5.5 0 0 0 .5.5h2.301a.5.5 0 0 0 .5-.5v-4.18a.5.5 0 0 0-.5-.5zm-.5 4.179h-1.301v-3.18h1.301v3.18zM25.23 21.259c-1.195 0-2.132 1.305-2.132 2.972 0 1.666.937 2.972 2.132 2.972 1.196 0 2.132-1.306 2.132-2.972 0-1.667-.936-2.972-2.132-2.972zm0 4.943c-.535 0-1.132-.81-1.132-1.972s.597-1.972 1.132-1.972c.536 0 1.132.81 1.132 1.972s-.596 1.972-1.132 1.972z"/></svg>