<svg style="fill:#fff" xmlns="http://www.w3.org/2000/svg" id="Layer_1" data-name="Layer 1"
    viewBox="0 0 50.46 50.46">
    <defs />
    <path
        d="M15.48 26.89h-2.81a.71.71 0 0 1-.71-.71v-4.51a1.27 1.27 0 0 1 1.28-1.27h1.68a1.27 1.27 0 0 1 1.27 1.27v4.51a.71.71 0 0 1-.71.71ZM26.08 26.89h-2.82a.7.7 0 0 1-.7-.71v-7.37a1.27 1.27 0 0 1 1.27-1.27h1.68a1.27 1.27 0 0 1 1.27 1.27v7.37a.71.71 0 0 1-.7.71ZM20.78 26.89H18a.7.7 0 0 1-.7-.71V14.85a1.27 1.27 0 0 1 1.27-1.28h1.68a1.27 1.27 0 0 1 1.27 1.28v11.33a.7.7 0 0 1-.74.71Z"
        class="cls-1" />
    <path
        d="M4 32.53a.42.42 0 0 1-.42-.42V29.4h28.48l.18-.15a5.44 5.44 0 0 1-1.3-1 1.57 1.57 0 0 1-.12-.19H3.55V10.18A.42.42 0 0 1 4 9.75h30.8a.42.42 0 0 1 .42.43v3.27a8.2 8.2 0 0 1 1.34-.45v-2.8a1.8 1.8 0 0 0-1.79-1.8H4a1.8 1.8 0 0 0-1.79 1.8v21.91A1.79 1.79 0 0 0 4 33.9h12v3a2.17 2.17 0 0 1-2.16 2.17h-.4a.68.68 0 1 0 0 1.36h11.84a.68.68 0 0 0 0-1.36h-.4a2.17 2.17 0 0 1-2.17-2.17v-3h5.85c.23-.45.49-.91.77-1.37Zm12.66 6.57a3.58 3.58 0 0 0 .74-2.17v-3h3.94v3a3.52 3.52 0 0 0 .75 2.17Z"
        class="cls-1" />
    <path
        d="m32.29 24.55.09.32a1.89 1.89 0 0 1 .1.54s-.2.36-.43.74l-.1.18a.69.69 0 0 0 .1.83 4.6 4.6 0 0 0 2.38 1.31h.17a.72.72 0 0 0 .18-1.41 3.86 3.86 0 0 1-1.29-.54 3.82 3.82 0 0 0 .39-.82 2.16 2.16 0 0 0 0-.35 3.31 3.31 0 0 0-.15-.92l-.09-.34c0-.13-.08-.26-.11-.39s0-.08 0-.11A5.87 5.87 0 0 1 33 21.3a5.51 5.51 0 1 1 11 0 5.78 5.78 0 0 1-.54 2.43c-.08.25-.15.5-.22.74a3.23 3.23 0 0 0-.15.94 2.16 2.16 0 0 0 0 .35v.1a4.19 4.19 0 0 0 .36.72 3.5 3.5 0 0 1-.95.45.7.7 0 0 0-.47.89.72.72 0 0 0 .9.47 4.29 4.29 0 0 0 2-1.19.69.69 0 0 0 .09-.83l-.1-.18c-.09-.15-.34-.57-.42-.73v-.05a2 2 0 0 1 .09-.54c.07-.24.14-.48.18-.64a7 7 0 0 0 .63-2.93 6.94 6.94 0 1 0-13.87 0 7.37 7.37 0 0 0 .59 2.87ZM42.29 29.42a.81.81 0 0 0-.78.08 5.55 5.55 0 0 1-3 .94 5.89 5.89 0 0 1-3-1 .71.71 0 0 0-.73 0c-4.43 2.2-6.27 8.1-5.88 9.25a.76.76 0 0 0 .27.37 18 18 0 0 0 9.42 3A16.9 16.9 0 0 0 48 39a.83.83 0 0 0 .26-.37c.35-1.09-1.49-7-5.97-9.21ZM42 30.88a8 8 0 0 1 1.12.78L41 33.92l-1.48-2.14a7.45 7.45 0 0 0 2.48-.9Zm-7 0a7.47 7.47 0 0 0 2.45.9L36 33.92l-2.07-2.26a7.9 7.9 0 0 1 1.07-.78Zm3.48 9.76a16.55 16.55 0 0 1-8.33-2.56 12.11 12.11 0 0 1 3-5.74l2.49 2.71a.48.48 0 0 0 .37.17.54.54 0 0 0 .38-.22l2.05-3 2.06 3a.5.5 0 0 0 .37.22.5.5 0 0 0 .37-.17l2.49-2.71a12.09 12.09 0 0 1 3 5.74 15.46 15.46 0 0 1-8.21 2.56Z"
        class="cls-1" />
    <path
        d="M40.88 18.74a.5.5 0 0 0-.49-.24.49.49 0 0 0-.4.37c-.63 2.8-2.48 3-4 3.09-.87.07-1.86.16-1.86 1.12 0 2.41 1.94 5.33 4.35 5.33s4.36-2.92 4.36-5.33c.04-.72-1.36-3.27-1.96-4.34Zm-2.36 8.71c-1.8 0-3.4-2.44-3.41-4.37a3.25 3.25 0 0 1 1-.17c1.33-.11 3.45-.3 4.47-2.72a15.58 15.58 0 0 1 1.34 2.9c0 1.91-1.6 4.36-3.4 4.36Z"
        class="cls-1" />
</svg>