<svg style="fill:#fff" xmlns="http://www.w3.org/2000/svg" data-name="Layer 1"
    viewBox="0 0 50.46 50.46">
    <path
        d="M25.42 31.58a19.2 19.2 0 0 1-10 3 21.1 21.1 0 0 1-10-3c.3-1.58 2.07-6.12 5.58-8.25a9.65 9.65 0 0 0 4.43 1.18 9.31 9.31 0 0 0 4.43-1.17c3.48 2.13 5.25 6.66 5.56 8.24ZM5.43 21.21l-.35.36 6.4.13a7.14 7.14 0 0 0 7.86 0l6.39-.13-.31-.35a11.51 11.51 0 0 1-2.33-8.12 7.72 7.72 0 0 0-2-5.93A6.64 6.64 0 0 0 16.28 5a5.61 5.61 0 0 0-4.1 1.56l-.18.12h-.09A3.91 3.91 0 0 0 9 7.85C8 9 7.52 10.84 7.74 13.35a10.41 10.41 0 0 1-2.31 7.86Zm4.42-5.49a5.57 5.57 0 0 1 3.15-5 13.45 13.45 0 0 0 8 5 5.56 5.56 0 0 1-11.13 0ZM35.1 32.39a7.18 7.18 0 0 0 7.15-7 5.79 5.79 0 0 0-.32-5.28 3.33 3.33 0 0 0-3.54-1.45 6.62 6.62 0 0 0-6.88-1.38c-5.42 2.14-3.81 7.43-3.55 8.18a7.2 7.2 0 0 0 7.14 6.93Zm2.74-11.76a14 14 0 0 0 2.8 4.37v.07a1 1 0 0 1 0 .15 5.55 5.55 0 0 1-11.09.43 15.32 15.32 0 0 0 8.29-5.02ZM45.15 41.32a19.2 19.2 0 0 1-10 3 21.1 21.1 0 0 1-10-3c.32-1.61 2.09-6.11 5.58-8.24a9.65 9.65 0 0 0 4.43 1.18 9.31 9.31 0 0 0 4.43-1.17c3.48 2.12 5.24 6.62 5.56 8.23Z" />
</svg>